<svg width="39" height="41" viewBox="0 0 39 41" fill="none" xmlns="http://www.w3.org/2000/svg">
<path d="M19.0484 9.9345C13.6443 9.9345 9.28524 14.6026 9.28524 20.39C9.28524 26.1773 13.6443 30.8454 19.0484 30.8454C24.4526 30.8454 28.8116 26.1773 28.8116 20.39C28.8116 14.6026 24.4526 9.9345 19.0484 9.9345ZM19.0484 27.1874C15.5561 27.1874 12.7011 24.139 12.7011 20.39C12.7011 16.6409 15.5476 13.5925 19.0484 13.5925C22.5493 13.5925 25.3958 16.6409 25.3958 20.39C25.3958 24.139 22.5408 27.1874 19.0484 27.1874ZM31.4882 9.50682C31.4882 10.8627 30.4686 11.9455 29.211 11.9455C27.9449 11.9455 26.9338 10.8536 26.9338 9.50682C26.9338 8.16008 27.9534 7.06812 29.211 7.06812C30.4686 7.06812 31.4882 8.16008 31.4882 9.50682ZM37.9545 11.9819C37.8101 8.71515 37.1133 5.82148 34.8786 3.43738C32.6523 1.05328 29.9503 0.307112 26.8998 0.143319C23.7558 -0.047773 14.3325 -0.047773 11.1886 0.143319C8.14662 0.298012 5.44453 1.04418 3.20979 3.42828C0.975046 5.81238 0.286778 8.70605 0.13383 11.9728C-0.0446099 15.3397 -0.0446099 25.4311 0.13383 28.798C0.278281 32.0648 0.975046 34.9584 3.20979 37.3425C5.44453 39.7266 8.13812 40.4728 11.1886 40.6366C14.3325 40.8277 23.7558 40.8277 26.8998 40.6366C29.9503 40.4819 32.6523 39.7357 34.8786 37.3425C37.1048 34.9584 37.8016 32.0648 37.9545 28.798C38.133 25.4311 38.133 15.3488 37.9545 11.9819ZM33.8929 32.4105C33.2301 34.1941 31.9471 35.5681 30.2731 36.287C27.7665 37.3516 21.8185 37.1059 19.0484 37.1059C16.2784 37.1059 10.3219 37.3425 7.82373 36.287C6.15829 35.5772 4.87523 34.2032 4.20395 32.4105C3.20979 29.7262 3.43921 23.3564 3.43921 20.39C3.43921 17.4235 3.21829 11.0447 4.20395 8.36937C4.86673 6.58584 6.1498 5.2118 7.82373 4.49293C10.3304 3.42828 16.2784 3.67397 19.0484 3.67397C21.8185 3.67397 27.775 3.43738 30.2731 4.49293C31.9386 5.2027 33.2216 6.57674 33.8929 8.36937C34.8871 11.0538 34.6577 17.4235 34.6577 20.39C34.6577 23.3564 34.8871 29.7353 33.8929 32.4105Z" fill="white"/>
</svg>
