<svg width="39" height="41" viewBox="0 0 39 41" fill="none" xmlns="http://www.w3.org/2000/svg">
<path d="M35.6334 0H2.97772C1.48139 0 0.265625 1.31989 0.265625 2.94016V37.8397C0.265625 39.46 1.48139 40.7799 2.97772 40.7799H35.6334C37.1297 40.7799 38.354 39.46 38.354 37.8397V2.94016C38.354 1.31989 37.1297 0 35.6334 0ZM11.7772 34.9542H6.13191V15.4927H11.7857V34.9542H11.7772ZM8.95453 12.8347C7.14364 12.8347 5.68132 11.26 5.68132 9.33022C5.68132 7.40046 7.14364 5.8257 8.95453 5.8257C10.7569 5.8257 12.2278 7.40046 12.2278 9.33022C12.2278 11.2691 10.7654 12.8347 8.95453 12.8347ZM32.9383 34.9542H27.2931V25.4874C27.2931 23.23 27.2506 20.3262 24.3599 20.3262C21.4183 20.3262 20.9677 22.784 20.9677 25.3236V34.9542H15.3224V15.4927H20.7381V18.1507H20.8146C21.5713 16.6215 23.4162 15.0103 26.1623 15.0103C31.8756 15.0103 32.9383 19.0428 32.9383 24.2859V34.9542Z" fill="white"/>
</svg>
